<svg viewBox="0 0 512 512" xmlns="http://www.w3.org/2000/svg" role="img" aria-label="Boppy — the rackbops mascot">
  <rect width="512" height="512" rx="116" fill="#2c4256"/>
  <rect x="80" y="80" width="352" height="44" rx="22" fill="#3d576e" opacity="0.35"/>
  <circle cx="428" cy="86" r="18" fill="#ef4d28"/>
  <circle cx="421" cy="80" r="6" fill="#ff9d84"/>
  <rect x="96" y="150" width="320" height="224" rx="52" fill="#0f1922"/>
  <rect x="110" y="164" width="292" height="196" rx="42" fill="#eef3f6"/>
  <circle cx="196" cy="236" r="36" fill="#16232f"/>
  <circle cx="316" cy="236" r="36" fill="#16232f"/>
  <circle cx="182" cy="222" r="13" fill="#ffffff"/>
  <circle cx="302" cy="222" r="13" fill="#ffffff"/>
  <rect x="187" y="304" width="18" height="22" rx="6" fill="#ef4d28"/>
  <rect x="217" y="288" width="18" height="38" rx="6" fill="#ef4d28"/>
  <rect x="247" y="276" width="18" height="50" rx="6" fill="#ef4d28"/>
  <rect x="277" y="288" width="18" height="38" rx="6" fill="#ef4d28"/>
  <rect x="307" y="304" width="18" height="22" rx="6" fill="#ef4d28"/>
</svg>
